<?xml version="1.0" encoding="utf-8"?>
<!-- Generator: Adobe Illustrator 22.1.0, SVG Export Plug-In . SVG Version: 6.00 Build 0)  -->
<svg version="1.1" id="Layer_1" xmlns="http://www.w3.org/2000/svg" xmlns:xlink="http://www.w3.org/1999/xlink" x="0px" y="0px"
	 viewBox="0 0 1024 1024" style="enable-background:new 0 0 1024 1024;" xml:space="preserve">
<style type="text/css">
	.st0{fill:none;stroke:#FFFFFF;stroke-width:55;stroke-linecap:round;stroke-linejoin:round;stroke-miterlimit:10;}
	.st1{fill:none;stroke:#FFFFFF;stroke-width:55;stroke-miterlimit:10;}
</style>
<path class="st0" d="M512.5,515.5l-233.4-0.3c-28.9,0-52.3,23.4-52.3,52.3v266.7c0,28.9,23.4,52.3,52.3,52.3h331.5
	c28.9,0,52.3-23.4,52.3-52.3V622.5"/>
<path class="st1" d="M398.5,886v-12.3c0-95.3-77.3-172.6-172.6-172.6"/>
<path class="st0" d="M797.5,574.6V184c0-26.2-21.3-47.5-47.5-47.5H570.3c-26.2,0-47.5,21.3-47.5,47.5v390.6
	c0,26.2,21.3,47.5,47.5,47.5H750C776.2,622.1,797.5,600.8,797.5,574.6z"/>
<path class="st1" d="M695.9,622.4v-12.3c0-95.3-77.3-172.6-172.6-172.6"/>
<g>
</g>
<g>
</g>
<g>
</g>
<g>
</g>
<g>
</g>
<g>
</g>
<g>
</g>
<g>
</g>
<g>
</g>
<g>
</g>
<g>
</g>
</svg>
