<?xml version="1.0" encoding="utf-8"?>
<!-- Generator: Adobe Illustrator 22.1.0, SVG Export Plug-In . SVG Version: 6.00 Build 0)  -->
<svg version="1.1" id="Layer_1" xmlns="http://www.w3.org/2000/svg" xmlns:xlink="http://www.w3.org/1999/xlink" x="0px" y="0px"
	 viewBox="0 0 1024 1024" style="enable-background:new 0 0 1024 1024;" xml:space="preserve">
<style type="text/css">
	.st0{fill:none;stroke:#FFFFFF;stroke-width:55;stroke-linecap:round;stroke-linejoin:round;stroke-miterlimit:10;}
	.st1{fill:none;stroke:#FFFFFF;stroke-width:55;stroke-miterlimit:10;}
	.st2{fill:none;stroke:#FFFFFF;stroke-width:55;stroke-linecap:round;stroke-miterlimit:10;}
	.st3{fill:#FFFFFF;stroke:#FFFFFF;stroke-width:55;stroke-linecap:round;stroke-miterlimit:10;}
</style>
<path class="st0" d="M724.5,811.2V207.8c0-40.5-32.8-73.3-73.3-73.3H373.6c-40.5,0-73.3,32.8-73.3,73.3v603.4
	c0,40.5,32.8,73.3,73.3,73.3h277.6C691.7,884.6,724.5,851.7,724.5,811.2z"/>
<path class="st1" d="M567.6,885v-18.9c0-147.3-119.4-266.6-266.6-266.6"/>
<line class="st2" x1="387.5" y1="339.5" x2="533" y2="339.5"/>
<line class="st2" x1="388" y1="422.5" x2="478" y2="422.5"/>
<line class="st2" x1="585" y1="482.5" x2="634.5" y2="482.5"/>
<line class="st2" x1="525" y1="560.5" x2="634.5" y2="560.5"/>
<circle class="st3" cx="397.5" cy="229.5" r="11"/>
<g>
</g>
<g>
</g>
<g>
</g>
<g>
</g>
<g>
</g>
<g>
</g>
<g>
</g>
<g>
</g>
<g>
</g>
<g>
</g>
<g>
</g>
</svg>
