<?xml version="1.0" encoding="utf-8"?>
<!-- Generator: Adobe Illustrator 22.1.0, SVG Export Plug-In . SVG Version: 6.00 Build 0)  -->
<svg version="1.1" id="Layer_1" xmlns="http://www.w3.org/2000/svg" xmlns:xlink="http://www.w3.org/1999/xlink" x="0px" y="0px"
	 viewBox="0 0 1328 1770" style="enable-background:new 0 0 1328 1770;" xml:space="preserve">
<style type="text/css">
	.st0{fill:url(#SVGID_1_);}
</style>
<g>
	<linearGradient id="SVGID_1_" gradientUnits="userSpaceOnUse" x1="6.1824" y1="1616.4502" x2="1135.3778" y2="162.4474">
		<stop  offset="0" style="stop-color:#ED1E79"/>
		<stop  offset="1" style="stop-color:#CA00FF"/>
	</linearGradient>
	<path class="st0" d="M1159,183.8c-0.3-0.2-0.7-0.4-1.1-0.6c-0.1-0.1-0.2-0.1-0.3-0.1L927.6,49.3c-1-0.6-2-1.2-3-1.7
		c-0.1,0-0.2-0.1-0.3-0.1C842.8,1.6,741.1,0.2,631.2,42.2c0,0-0.1,0-0.1,0c-5.3,2-10.6,4.1-16,6.4c-2.9,1.2-5.8,2.4-8.7,3.7
		c-0.3,0.2-0.7,0.3-1,0.4c-6.1,2.7-12.2,5.5-18.4,8.4c-3.1,1.5-6.3,3-9.4,4.6c-3.1,1.5-6.3,3.2-9.4,4.8c-3.2,1.6-6.3,3.3-9.4,5
		c0,0-0.1,0-0.1,0c-2.3,1.2-4.6,2.5-6.9,3.8c-4,2.2-8,4.5-12,6.8c-2.2,1.3-4.4,2.6-6.7,3.9c-2.2,1.3-4.4,2.6-6.7,4
		c-2.2,1.3-4.4,2.7-6.6,4.1c-4.4,2.7-8.9,5.5-13.3,8.4c-2.2,1.4-4.4,2.9-6.6,4.3c-9.6,6.3-19.1,12.9-28.6,19.8
		c-1.9,1.4-3.8,2.7-5.6,4.1c-4.3,3.1-8.5,6.3-12.7,9.5c-0.5,0.4-1,0.8-1.5,1.2c-2.3,1.7-4.5,3.5-6.8,5.3c-1.4,1.1-2.9,2.3-4.3,3.4
		c-0.7,0.5-1.4,1.1-2.1,1.7c-1.4,1.1-2.7,2.1-4,3.2c-0.6,0.5-1.2,0.9-1.8,1.4c-2.2,1.8-4.4,3.6-6.6,5.4c-2.2,1.8-4.4,3.7-6.6,5.5
		c-0.7,0.6-1.4,1.2-2.2,1.8l0,0c-1.9,1.6-3.8,3.2-5.6,4.8c-5.3,4.6-10.6,9.2-15.9,14c-0.8,0.7-1.6,1.4-2.4,2.1
		c-2,1.9-4.1,3.7-6.1,5.6C326,255.8,268.7,322.3,217.6,396.8c-3.1,4.4-6.1,8.8-9,13.3c-2.6,3.8-5.1,7.7-7.7,11.6
		c-2.5,3.9-5,7.8-7.5,11.6c-2.4,3.7-4.7,7.4-7,11.1c-3.1,4.9-6.1,9.8-9.1,14.8c-1.6,2.6-3.2,5.3-4.8,8c-2.2,3.7-4.4,7.4-6.6,11.1
		c-0.2,0.3-0.3,0.6-0.5,0.9c-0.9,1.7-1.9,3.3-2.9,5c-1,1.8-2,3.5-3,5.2c-6.4,11.2-12.6,22.5-18.6,33.7c-5.5,10.3-10.8,20.7-16,31.2
		c-1.6,3.3-3.3,6.6-4.9,10c-0.7,1.4-1.4,2.7-2,4.1c-5.5,11.4-10.9,23-16,34.6c-1.7,3.9-3.4,7.8-5.1,11.6c-3.5,8-6.9,16-10.1,24.1
		c-1.6,3.9-3.2,7.8-4.7,11.8c-0.9,2.4-1.9,4.8-2.8,7.2c-0.6,1.6-1.2,3.2-1.8,4.8c-1.6,4.2-3.2,8.4-4.8,12.6
		c-1.2,3.1-2.3,6.3-3.5,9.4c0,0,0,0,0,0c-2.3,6.3-4.5,12.6-6.6,18.8v0c-1.1,3.1-2.1,6.3-3.2,9.4c-1.5,4.5-3,9-4.4,13.6
		c-1.1,3.4-2.1,6.8-3.2,10.2c-1.1,3.4-2.1,6.8-3.1,10.2c-0.9,3.2-1.9,6.5-2.8,9.7c0,0,0,0,0,0c-0.9,3.2-1.8,6.4-2.7,9.6
		c-0.5,1.9-1,3.8-1.5,5.6c-0.9,3.2-1.8,6.4-2.6,9.5c-1.4,5.5-2.8,11-4.2,16.5c-0.5,2.1-1,4.1-1.5,6.2c-0.3,1.4-0.6,2.7-0.9,4
		c-0.7,3-1.4,6-2,8.9c-0.6,2.8-1.3,5.7-1.9,8.5c-0.2,0.9-0.4,1.9-0.6,2.8c-1.1,5.1-2.1,10.1-3.1,15.2c-0.5,2.3-0.9,4.7-1.4,7
		c-0.7,3.6-1.3,7.1-1.9,10.7c-0.5,2.9-1,5.9-1.5,8.8c-0.5,2.9-1,5.8-1.4,8.8c-0.4,2.8-0.9,5.6-1.3,8.4c-0.5,3.5-1,7-1.5,10.5
		c-0.2,1.6-0.4,3.2-0.7,4.8c-0.4,3-0.8,6.1-1.1,9.1c-0.3,2.4-0.6,4.7-0.8,7.1c-0.3,2.8-0.6,5.6-0.9,8.4c-0.2,2-0.4,4.1-0.6,6.1
		c-0.6,6.1-1.1,12.2-1.5,18.3c-0.2,2.3-0.3,4.6-0.5,6.9c-0.2,3.1-0.4,6.1-0.5,9.1c-0.4,8.1-0.7,16.1-0.9,24v0.3c0,0.9,0,1.8,0,2.7
		C8,998.7,8,1003,8,1007.3l1.7,605.8c0,4.5,2.4,8.6,6.3,10.9l231.3,134.4c0,0,0,0,0.1,0c1.9,1.1,4.1,1.7,6.3,1.7
		c2.2,0,4.3-0.6,6.3-1.7L787.2,1454c142.7-82.4,276.5-223.5,376.9-397.3c100.3-173.8,155.4-359.9,154.9-523.9
		C1318.5,367.5,1261.7,243.6,1159,183.8z M261.4,951.3c-0.3,1.3-0.6,2.6-0.9,3.8c-0.6,2.6-1.1,5.1-1.6,7.6c-0.8,3.5-1.4,7-2.1,10.4
		c-0.7,3.5-1.4,6.9-2,10.4c-0.2,1.2-0.4,2.4-0.7,3.6c-0.3,1.2-0.4,2.4-0.7,3.6c-0.3,1.5-0.6,3.1-0.8,4.7c-0.3,1.9-0.7,3.8-1,5.7
		c-0.2,1.3-0.4,2.6-0.6,3.9c-0.5,3.2-1,6.4-1.5,9.6c-0.1,0.5-0.2,1-0.3,1.4c0,0.2,0,0.3-0.1,0.5c-0.1,0.5-0.2,1-0.2,1.5
		c-0.2,1.1-0.3,2.2-0.5,3.4c-0.6,3.8-1.1,7.6-1.6,11.4l-0.6,4.1h0.1c-0.3,2.2-0.6,4.4-0.9,6.6c-0.3,2.2-0.6,4.4-0.8,6.6
		c-0.4,3.8-0.9,7.7-1.2,11.5c-0.1,1.4-0.3,2.7-0.4,4.1c-0.3,3.5-0.7,7-0.9,10.5c-0.2,2-0.3,4.1-0.5,6.1c0,0,0,0,0,0.1
		c-0.2,2-0.3,4-0.4,6v0.2c0,0.2,0,0.4,0,0.6c0,0.1,0,0.2,0,0.3c0,0.3,0,0.6-0.1,0.9c0,0.4,0,0.8-0.1,1.2c-0.2,3.5-0.4,7-0.6,10.4
		c-0.2,3.6-0.3,7.2-0.5,10.8c-0.1,3.6-0.2,7.2-0.3,10.7c0,0.4,0,0.9,0,1.3c0,0.7,0,1.3,0,2c0,0.7,0,1.5,0,2.2c0,1.9-0.1,3.8-0.1,5.7
		c0,2.4,0,4.8,0,7.2l1.6,583.9L34.9,1605.8l-1.7-598.6c0-4.4,0-8.8,0.1-13.2c0-0.5,0-1.1,0-1.6c0.1-7.8,0.4-15.8,0.8-23.8
		c0.2-4.1,0.4-8.3,0.7-12.4c0.3-3.9,0.5-7.8,0.9-11.8c0-0.5,0.1-1,0.1-1.5c0.3-3.6,0.6-7.2,1-10.9c0.1-0.5,0.1-1,0.2-1.5
		c0.4-4,0.8-8,1.3-12c0.5-4.2,1-8.5,1.5-12.7c0.8-6.2,1.7-12.5,2.6-18.9c0.8-5.4,1.7-10.7,2.6-16.1c2.1-12.3,4.5-24.8,7.2-37.2
		c1-4.9,2.1-9.8,3.3-14.8c1.1-5,2.3-10,3.5-14.9c2.5-10,5-20,7.8-30c1.2-4.4,2.5-8.8,3.8-13.2c1.3-4.4,2.6-8.9,4-13.3
		c2.7-8.9,5.5-17.7,8.5-26.6c1.3-4,2.7-8.1,4.1-12.1c4.3-12.4,8.8-24.8,13.6-37.2c4.6-12,9.5-24.2,14.7-36.3c1.5-3.5,3-7,4.5-10.5h0
		c1.6-3.8,3.3-7.6,5-11.3c1.7-3.8,3.4-7.6,5.1-11.4c1.7-3.8,3.5-7.6,5.3-11.3c0.3-0.8,0.7-1.6,1.1-2.4c1.4-3,2.8-6,4.2-8.9
		c1.1-2.3,2.2-4.6,3.4-6.9c1.3-2.6,2.6-5.2,3.9-7.8c2-4,4-8,6.1-12c0.9-1.9,1.9-3.8,2.9-5.6c2-4,4.2-8,6.3-12
		c7.8-14.7,16.1-29.5,24.5-44c2.1-3.8,4.3-7.5,6.6-11.2c4.4-7.4,8.9-14.8,13.5-22.1c1.1-1.8,2.3-3.7,3.4-5.5
		c1.1-1.8,2.3-3.6,3.4-5.4h0c2.4-3.8,4.9-7.6,7.4-11.4c4.9-7.6,10-15.1,15.1-22.6c2.5-3.7,5.1-7.4,7.7-11.1c2.8-4,5.6-8,8.5-12
		c3.3-4.6,6.6-9.1,10-13.6c2.1-2.8,4.2-5.6,6.3-8.4c3.2-4.4,6.6-8.8,9.9-13.1c1.7-2.2,3.4-4.4,5.2-6.6c1.7-2.2,3.4-4.4,5.2-6.6
		c10.4-13.1,21.1-26,32-38.4c2.3-2.6,4.6-5.3,6.9-7.9s4.7-5.2,7-7.8c2.4-2.6,4.7-5.2,7.1-7.8c4.4-4.8,8.9-9.5,13.3-14.2
		c0.3-0.3,0.6-0.7,0.9-1c2.4-2.5,4.8-5,7.2-7.4c1.7-1.7,3.3-3.4,5-5.1c3.1-3.2,6.3-6.4,9.5-9.5c1.7-1.7,3.5-3.4,5.2-5.1
		c1.7-1.7,3.5-3.4,5.3-5c3.5-3.4,7-6.6,10.5-9.9c0.1,0,0.1-0.1,0.2-0.2c3.4-3.2,6.9-6.4,10.4-9.5c0,0,0.1,0,0.1-0.1
		c3.5-3.2,7.1-6.4,10.7-9.5c0.5-0.5,1.1-1,1.6-1.4c3-2.6,6-5.3,9-7.8c3.2-2.8,6.5-5.5,9.7-8.2c4.2-3.5,8.4-6.9,12.7-10.3
		c3-2.4,6.1-4.8,9.1-7.2c1.2-0.9,2.5-1.9,3.7-2.8c2.1-1.7,4.3-3.3,6.4-4.9c2-1.5,3.9-3,5.9-4.4c16.9-12.5,33.9-24.1,51.1-34.9
		c1.8-1.1,3.6-2.2,5.3-3.3c1.1-0.7,2.2-1.4,3.3-2c1.9-1.2,3.8-2.3,5.6-3.4c2.6-1.5,5.2-3,7.8-4.5c9.5-5.5,19.1-10.7,28.6-15.6
		c2.6-1.4,5.2-2.7,7.8-3.9c3-1.5,6-3,9-4.4c0,0,0.1,0,0.1-0.1c9-4.3,18-8.3,26.9-12c20.5-8.6,40.7-15.6,60.5-21
		c15.3-4.2,30.3-7.4,45-9.7c12.9-2,25.6-3.3,38-3.8c11.4-0.5,22.6-0.4,33.5,0.3c10.4,0.6,20.5,1.8,30.5,3.6c9.6,1.7,19,3.9,28.2,6.6
		c18,5.3,35.2,12.5,51.5,21.6c0,0,0,0,0,0c0.9,0.5,1.9,1.1,2.9,1.6l132.1,76.8h-0.1l0.1,0c-1.3-0.1-2.6-0.3-3.9-0.4
		c-3.2-0.3-6.4-0.5-9.6-0.7c-1.6-0.1-3.2-0.2-4.8-0.3c-3.2-0.1-6.5-0.2-9.7-0.3c-29-0.4-59.3,2.9-90.4,10.1
		c-1.2,0.3-2.3,0.5-3.5,0.8c-14.4,3.4-29,7.6-43.8,12.6c-11.5,3.9-23.1,8.3-34.8,13.2c-3.1,1.3-6.2,2.6-9.3,4
		c-3,1.3-6.1,2.7-9.1,4.1c-0.1,0-0.2,0.1-0.3,0.1c-1,0.4-2,0.9-2.9,1.4c-0.1,0.1-0.3,0.1-0.4,0.2c-0.3,0.1-0.5,0.3-0.8,0.4
		c-0.1,0.1-0.2,0.1-0.3,0.2c-1.5,0.7-3,1.4-4.4,2.1c-0.1,0-0.1,0-0.2,0.1c-0.5,0.2-0.9,0.4-1.4,0.7c-2.8,1.4-5.6,2.7-8.4,4.1
		c-3.1,1.5-6.2,3.1-9.4,4.7c0,0,0,0,0,0c0,0-0.1,0-0.2,0.1c-1.3,0.7-2.6,1.3-3.9,2c-0.3,0.1-0.6,0.3-0.9,0.5
		c-0.3,0.2-0.7,0.4-1.1,0.6c-0.6,0.3-1.3,0.7-1.9,1c-0.5,0.3-1,0.5-1.6,0.8c-1.4,0.8-2.8,1.5-4.3,2.3c-1.8,1-3.6,2-5.4,3
		c-0.2,0.1-0.4,0.2-0.6,0.3c-0.1,0-0.1,0.1-0.2,0.1c-0.1,0-0.1,0.1-0.2,0.1c-0.1,0-0.2,0.1-0.3,0.2c-2.7,1.5-5.3,3-8,4.5
		c-2.2,1.3-4.4,2.6-6.7,3.9c-2.2,1.3-4.4,2.6-6.7,4c-2.2,1.3-4.4,2.7-6.6,4.1c-4.4,2.7-8.9,5.5-13.3,8.4c-2.2,1.4-4.4,2.9-6.6,4.3
		c-4.9,3.2-9.8,6.6-14.7,9.9c-1.7,1.2-3.4,2.4-5.1,3.6c-2.2,1.5-4.4,3.1-6.6,4.6c-1.4,1-2.7,2-4.1,3c-4.1,3-8.2,6-12.3,9.1
		c-2.8,2.1-5.6,4.3-8.4,6.4c-3.7,2.9-7.5,5.8-11.2,8.8c-3.7,3-7.4,6-11.1,9c-1.8,1.5-3.6,3-5.3,4.4c-1.8,1.5-3.6,3-5.3,4.5
		c0,0-0.1,0-0.1,0.1c0,0-0.1,0.1-0.1,0.1c-0.1,0.1-0.1,0.2-0.2,0.2c-0.4,0.3-0.8,0.7-1.3,1.1c-0.6,0.5-1.2,1-1.7,1.5
		c-0.2,0.2-0.4,0.3-0.6,0.5c-1.5,1.3-3.1,2.6-4.6,4c-0.9,0.8-1.8,1.6-2.7,2.4c-3.7,3.2-7.3,6.5-10.9,9.7c0,0,0,0,0,0
		c-6.7,6.1-13.4,12.3-20,18.6c-1.9,1.8-3.7,3.5-5.5,5.3c-2.3,2.2-4.6,4.4-6.9,6.7c-19.8,19.5-39.4,40.4-58.2,62.1
		c-14.7,16.9-29.2,34.6-43.2,52.6c-1.6,2.1-3.3,4.3-4.9,6.4c-1.4,1.8-2.7,3.6-4.1,5.4c-2.4,3.2-4.9,6.5-7.3,9.7
		c-0.1,0.2-0.2,0.3-0.3,0.4c-1.2,1.7-2.5,3.3-3.7,5c-2.6,3.5-5.1,7-7.6,10.5c-2.5,3.5-5,7.1-7.5,10.6c-10.6,15.1-20.9,30.5-30.8,46
		c-4.3,6.6-8.4,13.4-12.6,20.2c-1.2,1.9-2.3,3.8-3.5,5.8c-3.3,5.3-6.5,10.7-9.6,16.1c-0.6,1-1.2,2-1.8,3.1c-0.5,0.8-1,1.6-1.4,2.5
		c-0.5,0.8-0.9,1.6-1.4,2.5c-3.7,6.3-7.2,12.6-10.7,19c-1.8,3.2-3.6,6.4-5.3,9.6c-2,3.8-4.1,7.5-6.1,11.3h0
		c-5.8,10.9-11.4,21.9-16.9,33c-1.8,3.7-3.6,7.3-5.4,11c-0.2,0.4-0.4,0.9-0.6,1.3c-0.5,1-1,2.1-1.5,3.1c0,0.1-0.1,0.3-0.2,0.4
		c-0.7,1.4-1.4,2.9-2,4.3c-0.8,1.7-1.6,3.4-2.4,5.1c-5.2,11.1-10.2,22.2-15,33.3c-0.4,1-0.9,2-1.3,3c-0.3,0.8-0.7,1.6-1,2.4
		c-2.1,4.9-4.2,9.9-6.2,14.9c-0.9,2.1-1.7,4.2-2.6,6.3c-0.5,1.1-0.9,2.3-1.4,3.4c-1.1,2.7-2.1,5.3-3.2,8c-0.3,0.7-0.6,1.5-0.9,2.2
		c-1,2.5-2,5-2.9,7.5c-0.3,0.9-0.7,1.8-1,2.7c-2.9,7.4-5.6,14.9-8.3,22.4c-1.4,4-2.8,7.9-4.2,11.9c-1.6,4.4-3.1,8.9-4.5,13.3
		c-0.9,2.5-1.7,5-2.5,7.6c-0.2,0.7-0.4,1.3-0.6,2c-0.5,1.6-1,3.2-1.5,4.8c-0.5,1.6-1,3.2-1.5,4.8c-0.3,1-0.6,2-0.9,3
		c-0.4,1.1-0.7,2.2-1,3.3c-0.2,0.6-0.4,1.2-0.5,1.7c-1.4,4.5-2.7,9.1-4.1,13.6c-0.2,0.5-0.3,1-0.4,1.5c-0.6,2.2-1.3,4.5-1.9,6.7
		c-0.5,1.8-1,3.5-1.5,5.3c0,0,0,0,0,0c-0.3,1.1-0.6,2.2-0.9,3.3c0,0.1-0.1,0.2-0.1,0.3c-0.9,3.2-1.7,6.3-2.6,9.5
		c-0.1,0.2-0.1,0.4-0.2,0.7c-0.8,3.1-1.6,6.2-2.4,9.3c-0.6,2.6-1.3,5.1-1.9,7.7c-0.6,2.6-1.2,5.1-1.8,7.7
		C263.1,943.7,262.3,947.5,261.4,951.3z"/>
</g>
</svg>
